<svg width="34" height="34" viewBox="0 0 34 34" fill="none" xmlns="http://www.w3.org/2000/svg">
<g clip-path="url(#clip0_1_430)">
<path d="M30.1686 6.47441H25.334V3.30823C25.334 1.89112 24.1811 0.738239 22.7641 0.738239H11.2359C9.81889 0.738239 8.66602 1.89112 8.66602 3.30823V6.47441H3.83144C1.71879 6.47441 0 8.1932 0 10.3059V29.4303C0 31.543 1.71879 33.2618 3.83144 33.2618H30.1686C32.2812 33.2618 34 31.543 34 29.4303V10.3059C34 8.1932 32.2812 6.47441 30.1686 6.47441ZM10.791 3.30823C10.791 3.06704 10.9948 2.86324 11.2359 2.86324H22.7641C23.0052 2.86324 23.209 3.06697 23.209 3.30823V6.47441H10.791V3.30823ZM31.875 29.4303C31.875 30.3712 31.1095 31.1368 30.1686 31.1368H3.83144C2.89046 31.1368 2.125 30.3712 2.125 29.4303V10.3059C2.125 9.36494 2.89046 8.59941 3.83144 8.59941H30.1686C31.1095 8.59941 31.875 9.36488 31.875 10.3059V29.4303ZM23.6406 16.2905H20.5776V13.2275C20.5776 12.6407 20.1019 12.165 19.5151 12.165H14.4849C13.8982 12.165 13.4224 12.6407 13.4224 13.2275V16.2905H10.3594C9.77261 16.2905 9.29688 16.7662 9.29688 17.353V22.3832C9.29688 22.9699 9.77261 23.4457 10.3594 23.4457H13.4224V26.5086C13.4224 27.0954 13.8981 27.5711 14.4849 27.5711H19.5151C20.1018 27.5711 20.5776 27.0954 20.5776 26.5086V23.4457H23.6406C24.2274 23.4457 24.7031 22.9699 24.7031 22.3832V17.353C24.7031 16.7662 24.2274 16.2905 23.6406 16.2905ZM22.5781 21.3207H19.5151C18.9284 21.3207 18.4526 21.7964 18.4526 22.3832V25.4461H15.5474V22.3832C15.5474 21.7964 15.0717 21.3207 14.4849 21.3207H11.4219V18.4155H14.4849C15.0716 18.4155 15.5474 17.9397 15.5474 17.353V14.29H18.4526V17.353C18.4526 17.9397 18.9283 18.4155 19.5151 18.4155H22.5781V21.3207Z" fill="#118C78"/>
</g>
<defs>
<clipPath id="clip0_1_430">
<rect width="34" height="34" fill="white"/>
</clipPath>
</defs>
</svg>
