<svg width="35" height="34" viewBox="0 0 35 34" fill="none" xmlns="http://www.w3.org/2000/svg">
<g clip-path="url(#clip0_1_313)">
<path d="M17.5778 0C8.05572 0 0.349609 7.60332 0.349609 17C0.349609 26.396 8.05498 34 17.5778 34C27.0999 34 34.806 26.3967 34.806 17C34.806 7.60405 27.1006 0 17.5778 0ZM10.9117 3.50313C10.3903 4.90423 9.95271 6.32852 9.59946 7.77272C8.56705 7.4632 7.55146 7.09205 6.55472 6.65962C7.81682 5.35121 9.28754 4.28586 10.9117 3.50313ZM5.21778 8.25031C6.50795 8.83987 7.82833 9.33273 9.17502 9.72805C8.78429 11.7862 8.56086 13.881 8.50783 16.0039H2.40232C2.58826 13.1856 3.56159 10.5181 5.21778 8.25031ZM5.21778 25.7497C3.56159 23.4819 2.58826 20.8144 2.40232 17.9961H8.50783C8.56086 20.119 8.78429 22.2138 9.17502 24.2719C7.82833 24.6673 6.50801 25.1601 5.21778 25.7497ZM6.55472 27.3404C7.55146 26.9079 8.56698 26.5368 9.59946 26.2273C9.95278 27.6716 10.3903 29.0958 10.9117 30.4969C9.28835 29.7146 7.81749 28.6494 6.55472 27.3404ZM16.5683 31.9745C15.5081 31.9064 14.4689 31.7318 13.4636 31.4548C12.6651 29.5875 12.0278 27.6729 11.5524 25.7198C13.189 25.3588 14.8634 25.1476 16.5683 25.0879V31.9745ZM16.5683 23.0946C14.7211 23.1548 12.907 23.3806 11.134 23.7703C10.7817 21.8757 10.5788 19.9486 10.5274 17.9961H16.5683V23.0946ZM16.5683 16.0039H10.5274C10.5788 14.0514 10.7817 12.1243 11.134 10.2298C12.907 10.6194 14.7211 10.8452 16.5683 10.9054V16.0039ZM16.5683 8.91205C14.8634 8.85235 13.189 8.64125 11.5524 8.2802C12.0278 6.32712 12.6651 4.4125 13.4636 2.54515C14.4689 2.26824 15.5081 2.09359 16.5683 2.02552V8.91205ZM29.9378 8.25031C31.594 10.5181 32.5673 13.1856 32.7533 16.0039H26.6478C26.5947 13.881 26.3713 11.7862 25.9806 9.72805C27.3273 9.33273 28.6476 8.83987 29.9378 8.25031ZM28.6009 6.65955C27.6041 7.09205 26.5886 7.4632 25.5561 7.77265C25.2028 6.32845 24.7652 4.90417 24.2439 3.50306C25.8672 4.28539 27.3381 5.35055 28.6009 6.65955ZM18.5873 2.02552C19.6475 2.09359 20.6867 2.26824 21.692 2.54515C22.4905 4.4125 23.1278 6.32712 23.6032 8.2802C21.9666 8.64125 20.2922 8.85235 18.5873 8.91205V2.02552ZM18.5873 10.9054C20.4344 10.8452 22.2486 10.6194 24.0216 10.2298C24.3738 12.1243 24.5768 14.0514 24.6282 16.0039H18.5873V10.9054ZM21.692 31.4548C20.6867 31.7318 19.6475 31.9064 18.5873 31.9745V25.0879C20.2922 25.1476 21.9666 25.3588 23.6032 25.7198C23.1278 27.6729 22.4905 29.5875 21.692 31.4548ZM18.5873 23.0946V17.9961H24.6282C24.5768 19.9486 24.3738 21.8757 24.0216 23.7703C22.2486 23.3806 20.4344 23.1548 18.5873 23.0946ZM24.2439 30.4969C24.7652 29.0958 25.2029 27.6715 25.5561 26.2273C26.5885 26.5368 27.6041 26.9079 28.6009 27.3404C27.3388 28.6488 25.8681 29.7141 24.2439 30.4969ZM29.9378 25.7497C28.6476 25.1601 27.3273 24.6673 25.9806 24.2719C26.3713 22.2138 26.5947 20.119 26.6478 17.9961H32.7533C32.5673 20.8144 31.594 23.4819 29.9378 25.7497Z" fill="#118C78"/>
</g>
<defs>
<clipPath id="clip0_1_313">
<rect width="34.4564" height="34" fill="white" transform="translate(0.349609)"/>
</clipPath>
</defs>
</svg>
