<svg width="41" height="41" viewBox="0 0 41 41" fill="none" xmlns="http://www.w3.org/2000/svg">
<path d="M21.8885 11.9154C21.0453 11.9154 20.3132 12.0594 19.6779 12.3037C17.2301 13.245 14.5428 13.245 12.0951 12.3037C11.4597 12.0594 10.7276 11.9154 9.88446 11.9154C4.30873 11.9154 1.64984 19.3903 4.21373 25.5628C6.77771 31.7353 7.4424 40.6774 11.1459 40.6774C14.3747 40.6774 13.9416 33.3219 14.7408 29.1336C14.9828 27.8656 16.7901 27.8655 17.0321 29.1336C17.8313 33.3219 17.4132 40.6775 20.627 40.6775C24.3305 40.6775 24.9952 31.7354 27.5592 25.5629C30.1231 19.3903 27.4642 11.9154 21.8885 11.9154Z" fill="#118C78"/>
<path d="M21.8879 11.9155C21.4276 11.9155 21.0016 11.9597 20.6052 12.0384C25.3474 13.0286 27.4457 19.8527 25.0738 25.563C22.8439 30.931 22.0502 38.3927 19.4453 40.2467C19.7729 40.5228 20.1615 40.6776 20.6265 40.6776C24.33 40.6776 24.9947 31.7354 27.5587 25.563C30.1225 19.3905 27.4635 11.9155 21.8879 11.9155Z" fill="#118C78"/>
<path d="M29.2153 13.9839C29.2361 13.8405 29.2472 13.694 29.2472 13.5449C29.2472 11.8577 27.8795 10.49 26.1923 10.49C26.1587 10.49 26.1254 10.4915 26.0921 10.4926C25.688 8.71194 24.0967 7.38233 22.1938 7.38233C21.4048 7.38233 20.6699 7.61176 20.0502 8.00626C19.0973 7.25701 17.8966 6.80884 16.5904 6.80884C15.0001 6.80884 13.5658 7.47236 12.5459 8.53635C11.8946 8.07633 11.1004 7.80516 10.2423 7.80516C8.3611 7.80516 6.78416 9.10463 6.35802 10.8548C5.92699 10.6222 5.43376 10.49 4.90963 10.49C3.22245 10.49 1.85474 11.8577 1.85474 13.5449C1.85474 14.0987 2.00283 14.6176 2.2605 15.0655C0.958718 15.4152 0 16.6031 0 18.0154C0 19.7026 1.36772 21.0703 3.05489 21.0703C4.74207 21.0703 6.10979 19.7026 6.10979 18.0154C6.10979 17.4617 5.96169 16.9428 5.70402 16.4948C6.57138 16.2618 7.28634 15.6571 7.66701 14.8614C8.36284 15.4481 9.26109 15.8022 10.2425 15.8022C10.8274 15.8022 11.3824 15.6756 11.8831 15.4499C12.8811 16.9932 14.6159 18.0155 16.5905 18.0155C18.629 18.0155 20.4129 16.9267 21.3934 15.2991C21.652 15.3517 21.9197 15.3793 22.1939 15.3793C22.6818 15.3793 23.1492 15.2916 23.5816 15.1317C23.9496 15.7361 24.5218 16.2025 25.2022 16.4356C25.1817 16.5788 25.1704 16.725 25.1704 16.8739C25.1704 18.5611 26.5381 19.9288 28.2253 19.9288C29.9125 19.9288 31.2802 18.5611 31.2802 16.8739C31.2801 15.5334 30.4164 14.3953 29.2153 13.9839Z" fill="#D5FFF8"/>
<path d="M29.2153 13.9839C29.2359 13.8405 29.2472 13.694 29.2472 13.5449C29.2472 11.8577 27.8795 10.49 26.1923 10.49C26.1587 10.49 26.1254 10.4915 26.092 10.4925C25.6879 8.71194 24.0966 7.38232 22.1938 7.38232C21.5848 7.38232 21.0084 7.51948 20.4919 7.76324V8.18467C22.0568 8.47754 23.3002 9.68184 23.6506 11.2259C23.684 11.2248 23.7173 11.2233 23.7509 11.2233C25.4381 11.2233 26.8058 12.591 26.8058 14.2782V14.2827C26.8054 14.5322 26.9354 14.7668 27.1582 14.8792C28.1549 15.3821 28.8387 16.4146 28.8387 17.6073C28.8387 18.5203 28.4377 19.3393 27.8026 19.8991C27.9409 19.9182 28.0818 19.9289 28.2253 19.9289C29.9125 19.9289 31.2802 18.5612 31.2802 16.874C31.2801 15.5334 30.4164 14.3953 29.2153 13.9839Z" fill="#9EC8FC"/>
<path d="M21.7521 9.01842H12.3506C11.6737 9.01842 11.125 8.46969 11.125 7.79283V3.47011L17.0302 2.64185L22.9777 3.47011V7.79283C22.9777 8.46969 22.4289 9.01842 21.7521 9.01842Z" fill="#F3F5F3"/>
<path d="M3.86735 7.09945C4.21043 7.09945 4.48855 6.82133 4.48855 6.47826C4.48855 6.13518 4.21043 5.85706 3.86735 5.85706C3.52428 5.85706 3.24615 6.13518 3.24615 6.47826C3.24615 6.82133 3.52428 7.09945 3.86735 7.09945Z" fill="#62A4FB"/>
<path d="M32.7951 13.4437C33.1382 13.4437 33.4163 13.1656 33.4163 12.8225C33.4163 12.4794 33.1382 12.2013 32.7951 12.2013C32.452 12.2013 32.1739 12.4794 32.1739 12.8225C32.1739 13.1656 32.452 13.4437 32.7951 13.4437Z" fill="#62A4FB"/>
<path d="M9.70915 19.9142C10.0522 19.9142 10.3304 19.636 10.3304 19.293C10.3304 18.9499 10.0522 18.6718 9.70915 18.6718C9.36607 18.6718 9.08795 18.9499 9.08795 19.293C9.08795 19.636 9.36607 19.9142 9.70915 19.9142Z" fill="#62A4FB"/>
<path d="M15.8869 13.4437C16.23 13.4437 16.5081 13.1656 16.5081 12.8225C16.5081 12.4794 16.23 12.2013 15.8869 12.2013C15.5438 12.2013 15.2657 12.4794 15.2657 12.8225C15.2657 13.1656 15.5438 13.4437 15.8869 13.4437Z" fill="#62A4FB"/>
<path d="M13.3047 2.64185H14.5471V9.01842H13.3047V2.64185Z" fill="#E7E7E7"/>
<path d="M16.41 2.64185H17.6524V9.01842H16.41V2.64185Z" fill="#E7E7E7"/>
<path d="M19.5156 2.64185H20.758V9.01842H19.5156V2.64185Z" fill="#E7E7E7"/>
<path d="M40.9992 7.32384C40.9992 7.65995 40.7267 7.93245 40.3906 7.93245H29.5243C29.107 7.93245 28.7067 7.76663 28.4116 7.47152L24.4101 3.47H10.3176C9.98148 3.47 9.70898 3.1975 9.70898 2.86139V0.93112C9.70898 0.595009 9.98148 0.32251 10.3176 0.32251H25.062C25.4793 0.32251 25.8796 0.488329 26.1748 0.78344L30.1763 4.78496H40.3907C40.7268 4.78496 40.9993 5.05746 40.9993 5.39357L40.9992 7.32384Z" fill="#AAE6BE"/>
</svg>
