<svg width="34" height="34" viewBox="0 0 34 34" fill="none" xmlns="http://www.w3.org/2000/svg">
<g clip-path="url(#clip0_1_349)">
<path d="M6.72551 16.4602C4.55043 16.4602 2.78103 14.7068 2.78103 12.5524C2.78103 10.3977 4.55043 8.64433 6.72551 8.64433C8.90031 8.64433 10.6694 10.3974 10.6694 12.5524C10.6694 14.7071 8.90031 16.4602 6.72551 16.4602ZM6.72551 9.7411C5.15505 9.7411 3.8778 11.0023 3.8778 12.5524C3.8778 14.1022 5.15505 15.3634 6.72551 15.3634C8.29543 15.3634 9.57267 14.1022 9.57267 12.5524C9.57267 11.0023 8.29543 9.7411 6.72551 9.7411Z" fill="#118C78"/>
<path d="M8.31228 27.2801H1.43335C0.642898 27.2801 -1.14441e-05 26.6412 -1.14441e-05 25.8559V24.0621C-1.14441e-05 20.3899 3.01692 17.4022 6.7255 17.4022C8.18402 17.4022 9.5724 17.8574 10.7393 18.7183C10.983 18.8982 11.0349 19.2415 10.855 19.4854C10.6751 19.7288 10.3321 19.7808 10.0881 19.6011C9.11103 18.8803 7.94839 18.499 6.7255 18.499C3.62181 18.499 1.09676 20.9948 1.09676 24.0621V25.8559C1.09676 26.0363 1.24778 26.1833 1.43335 26.1833H8.31255C8.61513 26.1833 8.86094 26.4289 8.86094 26.7317C8.86094 27.0343 8.61513 27.2801 8.31228 27.2801Z" fill="#118C78"/>
<path d="M32.567 26.865H25.6881C25.3855 26.865 25.1397 26.6194 25.1397 26.3166C25.1397 26.014 25.3855 25.7682 25.6881 25.7682H32.5673C32.7529 25.7682 32.9039 25.6215 32.9039 25.441V23.6472C32.9039 20.5794 30.3788 18.0841 27.2751 18.0841C25.9789 18.0841 24.7134 18.5304 23.7117 19.3412C23.4766 19.5316 23.1315 19.4955 22.9405 19.2601C22.7501 19.0247 22.786 18.6793 23.0219 18.4887C24.218 17.5207 25.7285 16.9873 27.2751 16.9873C30.9835 16.9873 34.0004 19.9748 34.0004 23.6472V25.441C34.0004 26.2261 33.3575 26.865 32.567 26.865Z" fill="#118C78"/>
<path d="M27.274 16.1891C25.0992 16.1891 23.3301 14.4361 23.3301 12.2814C23.3301 10.1266 25.0992 8.37329 27.274 8.37329C29.4491 8.37329 31.2185 10.1264 31.2185 12.2814C31.2185 14.4363 29.4488 16.1891 27.274 16.1891ZM27.274 9.47007C25.7041 9.47007 24.4269 10.7312 24.4269 12.2814C24.4269 13.8315 25.7041 15.0924 27.274 15.0924C28.8445 15.0924 30.1217 13.8315 30.1217 12.2814C30.1217 10.7312 28.8442 9.47007 27.274 9.47007Z" fill="#118C78"/>
<path d="M24.4429 29.0645H9.55714C8.56828 29.0645 7.76391 28.266 7.76391 27.2844V24.7615C7.76391 19.7194 11.9068 15.6175 17 15.6175C22.0932 15.6175 26.2361 19.7194 26.2361 24.7615V27.2844C26.2361 28.266 25.4317 29.0645 24.4429 29.0645ZM17 16.7146C12.512 16.7146 8.86068 20.3246 8.86068 24.7618V27.2847C8.86068 27.6614 9.17317 27.968 9.55714 27.968H24.4426C24.8266 27.968 25.1391 27.6614 25.1391 27.2847V24.7618C25.1393 20.3246 21.488 16.7146 17 16.7146Z" fill="#118C78"/>
<path d="M16.8085 14.9768C14.0141 14.9768 11.7402 12.7246 11.7402 9.95591C11.7402 7.18747 14.0138 4.93555 16.8085 4.93555C19.6035 4.93555 21.8771 7.18774 21.8771 9.95618C21.8771 12.7249 19.6032 14.9768 16.8085 14.9768ZM16.8085 6.03232C14.6187 6.03232 12.837 7.79262 12.837 9.95618C12.837 12.12 14.6187 13.8803 16.8085 13.8803C18.9986 13.8803 20.7803 12.12 20.7803 9.95618C20.7803 7.79262 18.9986 6.03232 16.8085 6.03232Z" fill="#118C78"/>
</g>
<defs>
<clipPath id="clip0_1_349">
<rect width="34" height="34" fill="white"/>
</clipPath>
</defs>
</svg>
