<svg width="34" height="34" viewBox="0 0 34 34" fill="none" xmlns="http://www.w3.org/2000/svg">
<path d="M17.0009 33.4848C9.32513 33.4848 3.0918 27.303 3.0918 19.6788C3.0918 12.0545 9.32513 5.87271 17.0009 5.87271C24.6766 5.87271 30.91 12.0545 30.91 19.6788C30.91 22.4091 30.1373 24.9848 28.5918 27.303C28.4373 27.5606 28.1282 27.6121 27.8706 27.4576C27.613 27.303 27.5615 26.9939 27.716 26.7363C29.107 24.5727 29.8282 22.203 29.8282 19.6788C29.8282 12.6212 24.0585 6.90301 16.9494 6.90301C9.84028 6.90301 4.1221 12.6212 4.1221 19.6788C4.1221 26.7363 9.8918 32.4545 17.0009 32.4545C20.1433 32.4545 23.1827 31.3212 25.5524 29.2091C25.7585 29.003 26.0676 29.0545 26.2736 29.2606C26.4797 29.4667 26.4282 29.7757 26.2221 29.9818C23.6979 32.2485 20.4009 33.4848 17.0009 33.4848Z" fill="#118C78"/>
<path d="M17.0009 30.6515C10.9221 30.6515 5.97665 25.706 5.97665 19.6788C5.97665 13.6515 10.9221 8.70605 17.0009 8.70605C23.0797 8.70605 28.0251 13.6515 28.0251 19.6788C28.0251 25.706 23.0797 30.6515 17.0009 30.6515ZM17.0009 9.73635C11.4888 9.73635 7.00696 14.2182 7.00696 19.6788C7.00696 25.1394 11.4888 29.6212 17.0009 29.6212C22.513 29.6212 26.9948 25.1394 26.9948 19.6788C26.9948 14.2182 22.513 9.73635 17.0009 9.73635Z" fill="#118C78"/>
<path d="M28.1806 27.5092C27.923 27.5092 27.7169 27.3546 27.6654 27.097L27.3048 25.191C27.2533 24.9334 27.4594 24.6243 27.7169 24.5728C27.9745 24.5213 28.2836 24.7273 28.3351 24.9849L28.5927 26.3758L29.9836 26.1183C30.2412 26.0667 30.5503 26.2728 30.6018 26.5304C30.6533 26.7879 30.4472 27.097 30.1897 27.1486L28.2836 27.5092C28.2321 27.5092 28.2321 27.5092 28.1806 27.5092Z" fill="#118C78"/>
<path d="M17.0015 12.3637C16.6924 12.3637 16.4863 12.1577 16.4863 11.8486V10.8698C16.4863 10.5607 16.6924 10.3546 17.0015 10.3546C17.3106 10.3546 17.5166 10.5607 17.5166 10.8698V11.8486C17.5166 12.1577 17.3106 12.3637 17.0015 12.3637Z" fill="#118C78"/>
<path d="M17.0015 28.9001C16.6924 28.9001 16.4863 28.694 16.4863 28.3849V27.4062C16.4863 27.0971 16.6924 26.891 17.0015 26.891C17.3106 26.891 17.5166 27.0971 17.5166 27.4062V28.3849C17.5166 28.694 17.3106 28.9001 17.0015 28.9001Z" fill="#118C78"/>
<path d="M10.2524 16.2788C10.1494 16.2788 10.0978 16.2788 9.99482 16.2273L9.11906 15.7121C8.86149 15.5576 8.80997 15.2485 8.913 14.9909C9.06755 14.7333 9.37664 14.6818 9.63421 14.7848L10.51 15.3C10.7675 15.4545 10.8191 15.7636 10.716 16.0212C10.613 16.1757 10.4069 16.2788 10.2524 16.2788Z" fill="#118C78"/>
<path d="M24.6254 24.5212C24.5224 24.5212 24.4709 24.5212 24.3679 24.4697L23.4921 23.9545C23.2345 23.8 23.183 23.4909 23.286 23.2333C23.4406 22.9758 23.7497 22.9242 24.0073 23.0273L24.883 23.5424C25.1406 23.697 25.1921 24.0061 25.0891 24.2636C24.986 24.4182 24.78 24.5212 24.6254 24.5212Z" fill="#118C78"/>
<path d="M25.8091 20.1425H24.7788C24.4697 20.1425 24.2637 19.9365 24.2637 19.6274C24.2637 19.3183 24.4697 19.1122 24.7788 19.1122H25.8091C26.1182 19.1122 26.3243 19.3183 26.3243 19.6274C26.3243 19.9365 26.1182 20.1425 25.8091 20.1425Z" fill="#118C78"/>
<path d="M9.22124 20.1425H8.19093C7.88184 20.1425 7.67578 19.9365 7.67578 19.6274C7.67578 19.3183 7.88184 19.1122 8.19093 19.1122H9.22124C9.53033 19.1122 9.73639 19.3183 9.73639 19.6274C9.73639 19.9365 9.53033 20.1425 9.22124 20.1425Z" fill="#118C78"/>
<path d="M13.0857 13.4454C12.8797 13.4454 12.7251 13.3424 12.6221 13.1879L12.1585 12.3121C12.0039 12.0545 12.1069 11.7454 12.3645 11.5909C12.6221 11.4363 12.9312 11.5394 13.0857 11.797L13.5494 12.6727C13.7039 12.9303 13.6009 13.2394 13.3433 13.3939C13.2403 13.4454 13.1888 13.4454 13.0857 13.4454Z" fill="#118C78"/>
<path d="M21.3787 27.7152C21.1726 27.7152 21.0181 27.6122 20.9151 27.4576L20.4514 26.5819C20.2969 26.3243 20.3999 26.0152 20.6575 25.8607C20.9151 25.7061 21.2242 25.8092 21.3787 26.0667L21.8423 26.9425C21.9969 27.2001 21.8939 27.5092 21.6363 27.6637C21.5332 27.7152 21.4817 27.7152 21.3787 27.7152Z" fill="#118C78"/>
<path d="M9.37609 24.5213C9.22155 24.5213 9.01549 24.4183 8.91246 24.2637C8.75791 24.0061 8.86094 23.697 9.11852 23.5425L9.99427 23.0273C10.2519 22.8728 10.5609 22.9758 10.7155 23.2334C10.87 23.491 10.767 23.8001 10.5094 23.9546L9.63367 24.4698C9.53064 24.5213 9.47912 24.5213 9.37609 24.5213Z" fill="#118C78"/>
<path d="M23.7491 16.2789C23.5946 16.2789 23.3885 16.1758 23.2855 16.0213C23.131 15.7637 23.234 15.4546 23.4916 15.3001L24.3673 14.7849C24.6249 14.6304 24.934 14.7334 25.0885 14.991C25.2431 15.2486 25.14 15.5577 24.8825 15.7122L24.0067 16.2273C23.9037 16.2789 23.8522 16.2789 23.7491 16.2789Z" fill="#118C78"/>
<path d="M12.6221 27.7151C12.5191 27.7151 12.4675 27.7151 12.3645 27.6636C12.1069 27.5091 12.0039 27.2 12.1585 26.9424L12.6221 26.0667C12.7766 25.8091 13.0857 25.706 13.3433 25.8606C13.6009 26.0151 13.7039 26.3242 13.5494 26.5818L13.0857 27.4576C12.9827 27.6121 12.8282 27.7151 12.6221 27.7151Z" fill="#118C78"/>
<path d="M20.9151 13.4454C20.812 13.4454 20.7605 13.4454 20.6575 13.3939C20.3999 13.2394 20.2969 12.9303 20.4514 12.6727L20.9151 11.797C21.0696 11.5394 21.3787 11.4363 21.6363 11.5909C21.8939 11.7454 21.9969 12.0545 21.8423 12.3121L21.3787 13.1879C21.2757 13.3424 21.1211 13.4454 20.9151 13.4454Z" fill="#118C78"/>
<path d="M17 21.3272C16.0728 21.3272 15.3516 20.6059 15.3516 19.6787C15.3516 18.7514 16.0728 18.0302 17 18.0302C17.9273 18.0302 18.6485 18.7514 18.6485 19.6787C18.6485 20.6059 17.9273 21.3272 17 21.3272ZM17 19.0605C16.6394 19.0605 16.3819 19.3181 16.3819 19.6787C16.3819 20.0393 16.6394 20.2968 17 20.2968C17.3607 20.2968 17.6182 20.0393 17.6182 19.6787C17.6182 19.3181 17.3607 19.0605 17 19.0605Z" fill="#118C78"/>
<path d="M21.6373 20.1939H18.1342C17.8251 20.1939 17.6191 19.9879 17.6191 19.6788C17.6191 19.3697 17.8251 19.1636 18.1342 19.1636H21.6373C21.9464 19.1636 22.1524 19.3697 22.1524 19.6788C22.1524 19.9879 21.9464 20.1939 21.6373 20.1939Z" fill="#118C78"/>
<path d="M17.0015 19.0606C16.6924 19.0606 16.4863 18.8546 16.4863 18.5455V13.497C16.4863 13.1879 16.6924 12.9818 17.0015 12.9818C17.3106 12.9818 17.5166 13.1879 17.5166 13.497V18.5455C17.5166 18.8546 17.3106 19.0606 17.0015 19.0606Z" fill="#118C78"/>
<path d="M19.9373 4.1212H14.013C13.7039 4.1212 13.4979 3.91514 13.4979 3.60605V1.03029C13.4979 0.721197 13.7039 0.515137 14.013 0.515137H19.9373C20.2463 0.515137 20.4524 0.721197 20.4524 1.03029V3.60605C20.4524 3.91514 20.2463 4.1212 19.9373 4.1212ZM14.5282 3.09089H19.4221V1.54544H14.5282V3.09089Z" fill="#118C78"/>
<path d="M17.0013 6.90294C16.6922 6.90294 16.4861 6.69688 16.4861 6.38779V3.60597C16.4861 3.29688 16.6922 3.09082 17.0013 3.09082C17.3104 3.09082 17.5164 3.29688 17.5164 3.60597V6.38779C17.5164 6.69688 17.3104 6.90294 17.0013 6.90294Z" fill="#118C78"/>
<path d="M28.4877 8.70597C28.3846 8.70597 28.2816 8.65446 28.1786 8.60294L24.9331 6.13021C24.7271 5.97567 24.6755 5.66658 24.8301 5.409L26.3755 3.29688C26.4786 3.19385 26.5816 3.09082 26.7362 3.09082C26.8907 3.09082 26.9937 3.09082 27.0968 3.19385L30.3937 5.66658C30.4968 5.76961 30.5998 5.87264 30.5998 6.02718C30.5998 6.18173 30.5998 6.28476 30.4968 6.38779L28.8998 8.49991C28.7968 8.60294 28.6937 8.70597 28.5392 8.70597H28.4877ZM25.9634 5.61506L28.3846 7.46961L29.3634 6.18173L26.8907 4.32718L25.9634 5.61506Z" fill="#118C78"/>
<path d="M25.1914 9.63325C25.0884 9.63325 24.9854 9.58173 24.8823 9.53022C24.6763 9.37567 24.6248 9.01506 24.7793 8.809L26.4278 6.64537C26.5823 6.43931 26.943 6.38779 27.149 6.54234C27.3551 6.69688 27.4066 7.05749 27.252 7.26355L25.6036 9.42718C25.5005 9.58173 25.346 9.63325 25.1914 9.63325Z" fill="#118C78"/>
<path d="M5.46149 8.80908C5.30694 8.80908 5.1524 8.75756 5.04937 8.60302L3.4524 6.4909C3.34937 6.38787 3.34937 6.23332 3.34937 6.13029C3.34937 5.97574 3.4524 5.87271 3.55543 5.76968L6.8524 3.29696C7.05846 3.14241 7.41906 3.19393 7.57361 3.39999L9.17058 5.51211C9.27361 5.61514 9.27361 5.76968 9.27361 5.87271C9.27361 6.02726 9.17058 6.13029 9.06755 6.23332L5.77058 8.70605C5.66755 8.75756 5.56452 8.80908 5.46149 8.80908ZM4.58573 6.28483L5.56452 7.57271L8.03724 5.71817L7.05846 4.43029L4.58573 6.28483Z" fill="#118C78"/>
<path d="M8.75764 9.73625C8.6031 9.73625 8.44855 9.68474 8.34552 9.53019L6.69704 7.36656C6.54249 7.1605 6.59401 6.79989 6.80007 6.64534C7.00613 6.4908 7.36673 6.54231 7.52128 6.74837L9.16976 8.91201C9.32431 9.11807 9.27279 9.47868 9.06673 9.63322C8.9637 9.68474 8.86067 9.73625 8.75764 9.73625Z" fill="#118C78"/>
</svg>
